<svg width="85" height="79" viewBox="0 0 85 79" fill="none" xmlns="http://www.w3.org/2000/svg">
<g filter="url(#filter0_dd_315_503)">
<ellipse cx="42.5" cy="35.5" rx="38.5" ry="35.5" fill="#E1701A" fill-opacity="0.4" shape-rendering="crispEdges"/>
</g>
<g filter="url(#filter1_d_315_503)">
<path d="M42.5 15C29.5199 15 19 23.5203 19 34.0357C19 38.575 20.9645 42.7299 24.2324 45.9971C23.085 50.6096 19.2479 54.7188 19.202 54.7645C19 54.975 18.9449 55.2862 19.0643 55.5607C19.1836 55.8353 19.4406 56 19.7344 56C25.8205 56 30.3828 53.0897 32.641 51.296C35.6428 52.4217 38.975 53.0714 42.5 53.0714C55.4801 53.0714 66 44.5511 66 34.0357C66 23.5203 55.4801 15 42.5 15Z" fill="#E1701A"/>
</g>
<defs>
<filter id="filter0_dd_315_503" x="0" y="0" width="85" height="79" filterUnits="userSpaceOnUse" color-interpolation-filters="sRGB">
<feFlood flood-opacity="0" result="BackgroundImageFix"/>
<feColorMatrix in="SourceAlpha" type="matrix" values="0 0 0 0 0 0 0 0 0 0 0 0 0 0 0 0 0 0 127 0" result="hardAlpha"/>
<feOffset dy="4"/>
<feGaussianBlur stdDeviation="2"/>
<feComposite in2="hardAlpha" operator="out"/>
<feColorMatrix type="matrix" values="0 0 0 0 0 0 0 0 0 0 0 0 0 0 0 0 0 0 0.25 0"/>
<feBlend mode="normal" in2="BackgroundImageFix" result="effect1_dropShadow_315_503"/>
<feColorMatrix in="SourceAlpha" type="matrix" values="0 0 0 0 0 0 0 0 0 0 0 0 0 0 0 0 0 0 127 0" result="hardAlpha"/>
<feOffset dy="4"/>
<feGaussianBlur stdDeviation="2"/>
<feComposite in2="hardAlpha" operator="out"/>
<feColorMatrix type="matrix" values="0 0 0 0 0 0 0 0 0 0 0 0 0 0 0 0 0 0 0.25 0"/>
<feBlend mode="normal" in2="effect1_dropShadow_315_503" result="effect2_dropShadow_315_503"/>
<feBlend mode="normal" in="SourceGraphic" in2="effect2_dropShadow_315_503" result="shape"/>
</filter>
<filter id="filter1_d_315_503" x="15" y="15" width="55" height="49" filterUnits="userSpaceOnUse" color-interpolation-filters="sRGB">
<feFlood flood-opacity="0" result="BackgroundImageFix"/>
<feColorMatrix in="SourceAlpha" type="matrix" values="0 0 0 0 0 0 0 0 0 0 0 0 0 0 0 0 0 0 127 0" result="hardAlpha"/>
<feOffset dy="4"/>
<feGaussianBlur stdDeviation="2"/>
<feComposite in2="hardAlpha" operator="out"/>
<feColorMatrix type="matrix" values="0 0 0 0 0 0 0 0 0 0 0 0 0 0 0 0 0 0 0.25 0"/>
<feBlend mode="normal" in2="BackgroundImageFix" result="effect1_dropShadow_315_503"/>
<feBlend mode="normal" in="SourceGraphic" in2="effect1_dropShadow_315_503" result="shape"/>
</filter>
</defs>
</svg>
