<svg width="24" height="16" viewBox="0 0 24 16" fill="none" xmlns="http://www.w3.org/2000/svg">
<path d="M23.841 7.36687C21.2317 2.46626 17.2875 0 12 0C6.70978 0 2.76827 2.46626 0.158941 7.36933C0.0542802 7.56691 0 7.78271 0 8.00123C0 8.21974 0.0542802 8.43554 0.158941 8.63313C2.76827 13.5337 6.71253 16 12 16C17.2902 16 21.2317 13.5337 23.841 8.63068C24.053 8.23313 24.053 7.77178 23.841 7.36687ZM12 14.2331C7.56029 14.2331 4.30964 12.2258 2.01685 8C4.30964 3.77423 7.56029 1.76687 12 1.76687C16.4397 1.76687 19.6903 3.77423 21.9831 8C19.6931 12.2258 16.4425 14.2331 12 14.2331ZM11.8899 3.68098C9.21451 3.68098 7.04558 5.61472 7.04558 8C7.04558 10.3853 9.21451 12.319 11.8899 12.319C14.5653 12.319 16.7342 10.3853 16.7342 8C16.7342 5.61472 14.5653 3.68098 11.8899 3.68098ZM11.8899 10.7485C10.1861 10.7485 8.80715 9.51902 8.80715 8C8.80715 6.48098 10.1861 5.25153 11.8899 5.25153C13.5937 5.25153 14.9726 6.48098 14.9726 8C14.9726 9.51902 13.5937 10.7485 11.8899 10.7485Z" fill="black" fill-opacity="0.4"/>
</svg>
