<svg width="23" height="22" viewBox="0 0 23 22" fill="none" xmlns="http://www.w3.org/2000/svg">
<path d="M14.9286 1.90184e-07C13.8243 -0.000253043 12.7354 0.258159 11.749 0.754529C10.7626 1.2509 9.90617 1.97142 9.24838 2.85836C8.59058 3.7453 8.14969 4.774 7.96103 5.86201C7.77238 6.95002 7.84121 8.06709 8.162 9.12371L0 17.2857V22H4.71429L12.8763 13.838C13.8489 14.1332 14.8738 14.2153 15.881 14.0786C16.8882 13.942 17.8542 13.5898 18.713 13.046C19.5718 12.5023 20.3032 11.7798 20.8576 10.9278C21.4119 10.0758 21.776 9.11429 21.9251 8.10883C22.0742 7.10337 22.0049 6.07758 21.7217 5.10136C21.4385 4.12515 20.9482 3.22145 20.2842 2.45187C19.6201 1.68228 18.798 1.0649 17.8738 0.64178C16.9496 0.218664 15.945 -0.000235537 14.9286 1.90184e-07ZM14.9286 12.5714C14.3876 12.5711 13.8497 12.4912 13.332 12.3341L12.4308 12.0607L11.7653 12.7262L9.26593 15.2256L8.18243 14.1429L7.07143 15.2539L8.15493 16.3374L6.90879 17.5835L5.82529 16.5L4.71429 17.611L5.79779 18.6945L4.06371 20.4286H1.57143V17.9363L9.273 10.2347L9.93929 9.56921L9.66586 8.668C9.33003 7.56092 9.35184 6.37614 9.7282 5.28217C10.1046 4.18821 10.8163 3.24078 11.7622 2.57465C12.708 1.90852 13.8399 1.55761 14.9967 1.57184C16.1535 1.58608 17.2764 1.96472 18.2056 2.65392C19.1348 3.34312 19.823 4.30777 20.1723 5.41067C20.5216 6.51356 20.5143 7.69852 20.1513 8.797C19.7884 9.89548 19.0883 10.8515 18.1506 11.5292C17.2129 12.2068 16.0855 12.5715 14.9286 12.5714Z" fill="black" fill-opacity="0.4"/>
<path d="M15.714 7.85721C16.5819 7.85721 17.2854 7.15366 17.2854 6.28578C17.2854 5.41791 16.5819 4.71436 15.714 4.71436C14.8461 4.71436 14.1426 5.41791 14.1426 6.28578C14.1426 7.15366 14.8461 7.85721 15.714 7.85721Z" fill="black" fill-opacity="0.4"/>
</svg>
